<mxfile host="app.diagrams.net" modified="2021-01-12T15:54:17.687Z" agent="5.0 (Windows NT 10.0; Win64; x64) AppleWebKit/537.36 (KHTML, like Gecko) Chrome/87.0.4280.66 Safari/537.36" etag="QQ1bQOk2Drx6CzT5I4Cv" version="14.1.9" type="github">
  <diagram id="E6isdSU0OuEmwZFnWAFo" name="Page-1">
    <mxGraphModel dx="925" dy="503" grid="1" gridSize="10" guides="1" tooltips="1" connect="1" arrows="1" fold="1" page="1" pageScale="1" pageWidth="850" pageHeight="1100" math="0" shadow="0">
      <root>
        <mxCell id="0" />
        <mxCell id="1" parent="0" />
        <mxCell id="4cwHMj0BjWUyD5Tmxq7B-56" value="" style="whiteSpace=wrap;html=1;strokeWidth=1;gradientColor=#ffffff;" vertex="1" parent="1">
          <mxGeometry y="280" width="840" height="290" as="geometry" />
        </mxCell>
        <mxCell id="4cwHMj0BjWUyD5Tmxq7B-51" value="" style="whiteSpace=wrap;html=1;strokeWidth=1;gradientColor=#ffffff;" vertex="1" parent="1">
          <mxGeometry y="30" width="840" height="250" as="geometry" />
        </mxCell>
        <mxCell id="4cwHMj0BjWUyD5Tmxq7B-33" value="" style="html=1;outlineConnect=0;strokeColor=#82b366;gradientDirection=north;strokeWidth=1;shape=mxgraph.networks.cloud;gradientColor=#ffffff;fillColor=none;" vertex="1" parent="1">
          <mxGeometry x="20" y="330" width="810" height="220" as="geometry" />
        </mxCell>
        <mxCell id="4cwHMj0BjWUyD5Tmxq7B-1" value="&lt;font color=&quot;#000000&quot;&gt;GIN&lt;/font&gt;" style="html=1;outlineConnect=0;fillColor=#CCCCCC;strokeColor=#6881B3;gradientColor=none;gradientDirection=north;strokeWidth=2;shape=mxgraph.networks.cloud;fontColor=#ffffff;" vertex="1" parent="1">
          <mxGeometry x="540" y="30" width="150" height="120" as="geometry" />
        </mxCell>
        <mxCell id="4cwHMj0BjWUyD5Tmxq7B-16" style="edgeStyle=none;rounded=0;orthogonalLoop=1;jettySize=auto;html=1;exitX=0.5;exitY=0;exitDx=0;exitDy=0;exitPerimeter=0;entryX=0;entryY=0.98;entryDx=0;entryDy=0;entryPerimeter=0;" edge="1" parent="1" source="4cwHMj0BjWUyD5Tmxq7B-2" target="4cwHMj0BjWUyD5Tmxq7B-8">
          <mxGeometry relative="1" as="geometry" />
        </mxCell>
        <mxCell id="4cwHMj0BjWUyD5Tmxq7B-17" style="edgeStyle=none;rounded=0;orthogonalLoop=1;jettySize=auto;html=1;exitX=0.5;exitY=0;exitDx=0;exitDy=0;exitPerimeter=0;entryX=0;entryY=0.98;entryDx=0;entryDy=0;entryPerimeter=0;" edge="1" parent="1" source="4cwHMj0BjWUyD5Tmxq7B-2" target="4cwHMj0BjWUyD5Tmxq7B-9">
          <mxGeometry relative="1" as="geometry" />
        </mxCell>
        <mxCell id="4cwHMj0BjWUyD5Tmxq7B-2" value="" style="shape=mxgraph.cisco.switches.workgroup_switch;html=1;pointerEvents=1;dashed=0;fillColor=#036897;strokeColor=#ffffff;strokeWidth=2;verticalLabelPosition=bottom;verticalAlign=top;align=center;outlineConnect=0;" vertex="1" parent="1">
          <mxGeometry x="100" y="500" width="71" height="30" as="geometry" />
        </mxCell>
        <mxCell id="4cwHMj0BjWUyD5Tmxq7B-18" style="edgeStyle=none;rounded=0;orthogonalLoop=1;jettySize=auto;html=1;exitX=0.5;exitY=0;exitDx=0;exitDy=0;exitPerimeter=0;" edge="1" parent="1" source="4cwHMj0BjWUyD5Tmxq7B-3" target="4cwHMj0BjWUyD5Tmxq7B-8">
          <mxGeometry relative="1" as="geometry" />
        </mxCell>
        <mxCell id="4cwHMj0BjWUyD5Tmxq7B-19" style="edgeStyle=none;rounded=0;orthogonalLoop=1;jettySize=auto;html=1;exitX=0.5;exitY=0;exitDx=0;exitDy=0;exitPerimeter=0;entryX=0.5;entryY=0.98;entryDx=0;entryDy=0;entryPerimeter=0;" edge="1" parent="1" source="4cwHMj0BjWUyD5Tmxq7B-3" target="4cwHMj0BjWUyD5Tmxq7B-9">
          <mxGeometry relative="1" as="geometry" />
        </mxCell>
        <mxCell id="4cwHMj0BjWUyD5Tmxq7B-3" value="" style="shape=mxgraph.cisco.switches.workgroup_switch;html=1;pointerEvents=1;dashed=0;fillColor=#036897;strokeColor=#ffffff;strokeWidth=2;verticalLabelPosition=bottom;verticalAlign=top;align=center;outlineConnect=0;" vertex="1" parent="1">
          <mxGeometry x="190" y="500" width="71" height="30" as="geometry" />
        </mxCell>
        <mxCell id="4cwHMj0BjWUyD5Tmxq7B-20" style="edgeStyle=none;rounded=0;orthogonalLoop=1;jettySize=auto;html=1;exitX=0.5;exitY=0;exitDx=0;exitDy=0;exitPerimeter=0;" edge="1" parent="1" source="4cwHMj0BjWUyD5Tmxq7B-4" target="4cwHMj0BjWUyD5Tmxq7B-8">
          <mxGeometry relative="1" as="geometry" />
        </mxCell>
        <mxCell id="4cwHMj0BjWUyD5Tmxq7B-23" style="edgeStyle=none;rounded=0;orthogonalLoop=1;jettySize=auto;html=1;" edge="1" parent="1" source="4cwHMj0BjWUyD5Tmxq7B-4" target="4cwHMj0BjWUyD5Tmxq7B-9">
          <mxGeometry relative="1" as="geometry" />
        </mxCell>
        <mxCell id="4cwHMj0BjWUyD5Tmxq7B-4" value="" style="shape=mxgraph.cisco.switches.workgroup_switch;html=1;pointerEvents=1;dashed=0;fillColor=#036897;strokeColor=#ffffff;strokeWidth=2;verticalLabelPosition=bottom;verticalAlign=top;align=center;outlineConnect=0;" vertex="1" parent="1">
          <mxGeometry x="280" y="500" width="71" height="30" as="geometry" />
        </mxCell>
        <mxCell id="4cwHMj0BjWUyD5Tmxq7B-21" style="edgeStyle=none;rounded=0;orthogonalLoop=1;jettySize=auto;html=1;exitX=0.5;exitY=0;exitDx=0;exitDy=0;exitPerimeter=0;" edge="1" parent="1" source="4cwHMj0BjWUyD5Tmxq7B-5" target="4cwHMj0BjWUyD5Tmxq7B-9">
          <mxGeometry relative="1" as="geometry" />
        </mxCell>
        <mxCell id="4cwHMj0BjWUyD5Tmxq7B-22" style="edgeStyle=none;rounded=0;orthogonalLoop=1;jettySize=auto;html=1;exitX=0.5;exitY=0;exitDx=0;exitDy=0;exitPerimeter=0;entryX=0;entryY=0.98;entryDx=0;entryDy=0;entryPerimeter=0;" edge="1" parent="1" source="4cwHMj0BjWUyD5Tmxq7B-5" target="4cwHMj0BjWUyD5Tmxq7B-8">
          <mxGeometry relative="1" as="geometry" />
        </mxCell>
        <mxCell id="4cwHMj0BjWUyD5Tmxq7B-5" value="" style="shape=mxgraph.cisco.switches.workgroup_switch;html=1;pointerEvents=1;dashed=0;fillColor=#036897;strokeColor=#ffffff;strokeWidth=2;verticalLabelPosition=bottom;verticalAlign=top;align=center;outlineConnect=0;" vertex="1" parent="1">
          <mxGeometry x="370" y="500" width="71" height="30" as="geometry" />
        </mxCell>
        <mxCell id="4cwHMj0BjWUyD5Tmxq7B-26" style="edgeStyle=none;rounded=0;orthogonalLoop=1;jettySize=auto;html=1;exitX=0;exitY=0.5;exitDx=0;exitDy=0;exitPerimeter=0;entryX=0.5;entryY=0.98;entryDx=0;entryDy=0;entryPerimeter=0;" edge="1" parent="1" source="4cwHMj0BjWUyD5Tmxq7B-6" target="4cwHMj0BjWUyD5Tmxq7B-8">
          <mxGeometry relative="1" as="geometry" />
        </mxCell>
        <mxCell id="4cwHMj0BjWUyD5Tmxq7B-27" style="edgeStyle=none;rounded=0;orthogonalLoop=1;jettySize=auto;html=1;exitX=0;exitY=0.5;exitDx=0;exitDy=0;exitPerimeter=0;" edge="1" parent="1" source="4cwHMj0BjWUyD5Tmxq7B-6" target="4cwHMj0BjWUyD5Tmxq7B-9">
          <mxGeometry relative="1" as="geometry" />
        </mxCell>
        <mxCell id="4cwHMj0BjWUyD5Tmxq7B-38" style="edgeStyle=none;rounded=0;orthogonalLoop=1;jettySize=auto;html=1;entryX=0;entryY=1;entryDx=0;entryDy=0;entryPerimeter=0;" edge="1" parent="1" source="4cwHMj0BjWUyD5Tmxq7B-6" target="4cwHMj0BjWUyD5Tmxq7B-35">
          <mxGeometry relative="1" as="geometry" />
        </mxCell>
        <mxCell id="4cwHMj0BjWUyD5Tmxq7B-41" style="edgeStyle=none;rounded=0;orthogonalLoop=1;jettySize=auto;html=1;entryX=0;entryY=1;entryDx=0;entryDy=0;entryPerimeter=0;" edge="1" parent="1" source="4cwHMj0BjWUyD5Tmxq7B-6" target="4cwHMj0BjWUyD5Tmxq7B-34">
          <mxGeometry relative="1" as="geometry" />
        </mxCell>
        <mxCell id="4cwHMj0BjWUyD5Tmxq7B-6" value="" style="shape=mxgraph.cisco.switches.workgroup_switch;html=1;pointerEvents=1;dashed=0;fillColor=#036897;strokeColor=#ffffff;strokeWidth=2;verticalLabelPosition=bottom;verticalAlign=top;align=center;outlineConnect=0;" vertex="1" parent="1">
          <mxGeometry x="520" y="490" width="71" height="30" as="geometry" />
        </mxCell>
        <mxCell id="4cwHMj0BjWUyD5Tmxq7B-30" style="edgeStyle=none;rounded=0;orthogonalLoop=1;jettySize=auto;html=1;exitX=0.5;exitY=0;exitDx=0;exitDy=0;exitPerimeter=0;entryX=0;entryY=0.98;entryDx=0;entryDy=0;entryPerimeter=0;" edge="1" parent="1" source="4cwHMj0BjWUyD5Tmxq7B-7" target="4cwHMj0BjWUyD5Tmxq7B-8">
          <mxGeometry relative="1" as="geometry" />
        </mxCell>
        <mxCell id="4cwHMj0BjWUyD5Tmxq7B-32" style="edgeStyle=none;rounded=0;orthogonalLoop=1;jettySize=auto;html=1;exitX=0.5;exitY=0;exitDx=0;exitDy=0;exitPerimeter=0;" edge="1" parent="1" source="4cwHMj0BjWUyD5Tmxq7B-7" target="4cwHMj0BjWUyD5Tmxq7B-9">
          <mxGeometry relative="1" as="geometry" />
        </mxCell>
        <mxCell id="4cwHMj0BjWUyD5Tmxq7B-44" style="edgeStyle=none;rounded=0;orthogonalLoop=1;jettySize=auto;html=1;entryX=0.5;entryY=1;entryDx=0;entryDy=0;entryPerimeter=0;" edge="1" parent="1" source="4cwHMj0BjWUyD5Tmxq7B-7" target="4cwHMj0BjWUyD5Tmxq7B-34">
          <mxGeometry relative="1" as="geometry" />
        </mxCell>
        <mxCell id="4cwHMj0BjWUyD5Tmxq7B-45" style="edgeStyle=none;rounded=0;orthogonalLoop=1;jettySize=auto;html=1;entryX=0.5;entryY=1;entryDx=0;entryDy=0;entryPerimeter=0;" edge="1" parent="1" source="4cwHMj0BjWUyD5Tmxq7B-7" target="4cwHMj0BjWUyD5Tmxq7B-35">
          <mxGeometry relative="1" as="geometry" />
        </mxCell>
        <mxCell id="4cwHMj0BjWUyD5Tmxq7B-7" value="" style="shape=mxgraph.cisco.switches.workgroup_switch;html=1;pointerEvents=1;dashed=0;fillColor=#036897;strokeColor=#ffffff;strokeWidth=2;verticalLabelPosition=bottom;verticalAlign=top;align=center;outlineConnect=0;" vertex="1" parent="1">
          <mxGeometry x="610" y="490" width="71" height="30" as="geometry" />
        </mxCell>
        <mxCell id="4cwHMj0BjWUyD5Tmxq7B-8" value="" style="shape=mxgraph.cisco.switches.workgroup_switch;html=1;pointerEvents=1;dashed=0;strokeColor=#ffffff;strokeWidth=2;verticalLabelPosition=bottom;verticalAlign=top;align=center;outlineConnect=0;fillColor=#990099;" vertex="1" parent="1">
          <mxGeometry x="180" y="400" width="71" height="30" as="geometry" />
        </mxCell>
        <mxCell id="4cwHMj0BjWUyD5Tmxq7B-9" value="" style="shape=mxgraph.cisco.switches.workgroup_switch;html=1;pointerEvents=1;dashed=0;strokeColor=#ffffff;strokeWidth=2;verticalLabelPosition=bottom;verticalAlign=top;align=center;outlineConnect=0;fillColor=#990099;" vertex="1" parent="1">
          <mxGeometry x="270" y="400" width="71" height="30" as="geometry" />
        </mxCell>
        <mxCell id="4cwHMj0BjWUyD5Tmxq7B-50" style="edgeStyle=none;rounded=0;orthogonalLoop=1;jettySize=auto;html=1;entryX=0.5;entryY=1;entryDx=0;entryDy=0;entryPerimeter=0;" edge="1" parent="1" source="4cwHMj0BjWUyD5Tmxq7B-34" target="4cwHMj0BjWUyD5Tmxq7B-1">
          <mxGeometry relative="1" as="geometry" />
        </mxCell>
        <mxCell id="4cwHMj0BjWUyD5Tmxq7B-34" value="" style="shape=mxgraph.cisco.security.firewall;html=1;pointerEvents=1;dashed=0;fillColor=#a20025;strokeColor=#6F0000;strokeWidth=2;verticalLabelPosition=bottom;verticalAlign=top;align=center;outlineConnect=0;fontColor=#ffffff;gradientColor=#ffffff;" vertex="1" parent="1">
          <mxGeometry x="571" y="240" width="29" height="67" as="geometry" />
        </mxCell>
        <mxCell id="4cwHMj0BjWUyD5Tmxq7B-49" style="edgeStyle=none;rounded=0;orthogonalLoop=1;jettySize=auto;html=1;" edge="1" parent="1" source="4cwHMj0BjWUyD5Tmxq7B-35" target="4cwHMj0BjWUyD5Tmxq7B-1">
          <mxGeometry relative="1" as="geometry" />
        </mxCell>
        <mxCell id="4cwHMj0BjWUyD5Tmxq7B-35" value="" style="shape=mxgraph.cisco.security.firewall;html=1;pointerEvents=1;dashed=0;fillColor=#a20025;strokeColor=#6F0000;strokeWidth=2;verticalLabelPosition=bottom;verticalAlign=top;align=center;outlineConnect=0;fontColor=#ffffff;gradientColor=#ffffff;" vertex="1" parent="1">
          <mxGeometry x="620" y="240" width="29" height="67" as="geometry" />
        </mxCell>
        <mxCell id="4cwHMj0BjWUyD5Tmxq7B-36" value="FW_EXT_LOG" style="text;html=1;align=center;verticalAlign=middle;resizable=0;points=[];autosize=1;" vertex="1" parent="1">
          <mxGeometry x="649" y="263.5" width="100" height="20" as="geometry" />
        </mxCell>
        <mxCell id="4cwHMj0BjWUyD5Tmxq7B-37" value="IP Fabric" style="text;html=1;align=center;verticalAlign=middle;resizable=0;points=[];autosize=1;" vertex="1" parent="1">
          <mxGeometry x="450" y="350" width="60" height="20" as="geometry" />
        </mxCell>
        <mxCell id="4cwHMj0BjWUyD5Tmxq7B-46" value="Border Leaf SWs" style="text;html=1;align=center;verticalAlign=middle;resizable=0;points=[];autosize=1;" vertex="1" parent="1">
          <mxGeometry x="680" y="490" width="110" height="20" as="geometry" />
        </mxCell>
        <mxCell id="4cwHMj0BjWUyD5Tmxq7B-47" value="Leaf SWs" style="text;html=1;align=center;verticalAlign=middle;resizable=0;points=[];autosize=1;" vertex="1" parent="1">
          <mxGeometry x="425" y="520" width="70" height="20" as="geometry" />
        </mxCell>
        <mxCell id="4cwHMj0BjWUyD5Tmxq7B-48" value="Spine SWs" style="text;html=1;align=center;verticalAlign=middle;resizable=0;points=[];autosize=1;" vertex="1" parent="1">
          <mxGeometry x="340" y="400" width="70" height="20" as="geometry" />
        </mxCell>
        <mxCell id="4cwHMj0BjWUyD5Tmxq7B-52" value="&lt;font color=&quot;#ff33ff&quot;&gt;GIN IPs &lt;br&gt;10.228.x.x?&lt;/font&gt;" style="text;html=1;align=center;verticalAlign=middle;resizable=0;points=[];autosize=1;" vertex="1" parent="1">
          <mxGeometry x="465" y="185" width="80" height="30" as="geometry" />
        </mxCell>
        <mxCell id="4cwHMj0BjWUyD5Tmxq7B-55" value="" style="shape=flexArrow;endArrow=classic;startArrow=classic;html=1;strokeColor=#d6b656;fillColor=#FF66FF;gradientColor=#FFFFFF;" edge="1" parent="1">
          <mxGeometry width="50" height="50" relative="1" as="geometry">
            <mxPoint x="550" y="245" as="sourcePoint" />
            <mxPoint x="550" y="155" as="targetPoint" />
          </mxGeometry>
        </mxCell>
        <mxCell id="4cwHMj0BjWUyD5Tmxq7B-59" value="" style="shape=flexArrow;endArrow=classic;startArrow=classic;html=1;gradientColor=#ffd966;strokeColor=#d6b656;fillColor=#FF9933;" edge="1" parent="1">
          <mxGeometry width="50" height="50" relative="1" as="geometry">
            <mxPoint x="690" y="480" as="sourcePoint" />
            <mxPoint x="690" y="307" as="targetPoint" />
          </mxGeometry>
        </mxCell>
        <mxCell id="4cwHMj0BjWUyD5Tmxq7B-60" value="&lt;font color=&quot;#ff8000&quot;&gt;DIOD addressing&lt;br&gt;172.22.x.x?&lt;/font&gt;" style="text;html=1;align=center;verticalAlign=middle;resizable=0;points=[];autosize=1;" vertex="1" parent="1">
          <mxGeometry x="700" y="370" width="110" height="30" as="geometry" />
        </mxCell>
      </root>
    </mxGraphModel>
  </diagram>
</mxfile>
